<mxfile host="app.diagrams.net" agent="Mozilla/5.0 (Windows NT 10.0; Win64; x64) AppleWebKit/537.36 (KHTML, like Gecko) Chrome/129.0.0.0 Safari/537.36" version="24.7.16">
  <diagram name="Page-1" id="G1n7PXte-jtUPhk0zd02">
    <mxGraphModel dx="3500" dy="2010" grid="1" gridSize="10" guides="1" tooltips="1" connect="1" arrows="1" fold="1" page="1" pageScale="1" pageWidth="850" pageHeight="1100" math="0" shadow="0">
      <root>
        <mxCell id="0" />
        <mxCell id="1" parent="0" />
        <mxCell id="LcHKL6DFev7YtZBEbFu9-3" value="Clear Screen" style="whiteSpace=wrap;strokeWidth=2;" vertex="1" parent="1">
          <mxGeometry x="795" y="75" width="151" height="48" as="geometry" />
        </mxCell>
        <mxCell id="LcHKL6DFev7YtZBEbFu9-4" value="Login - 3 kali percobaan" style="whiteSpace=wrap;strokeWidth=2;" vertex="1" parent="1">
          <mxGeometry x="754" y="173" width="232" height="48" as="geometry" />
        </mxCell>
        <mxCell id="LcHKL6DFev7YtZBEbFu9-5" value="Masukkan Username" style="whiteSpace=wrap;strokeWidth=2;" vertex="1" parent="1">
          <mxGeometry x="990" y="272" width="205" height="48" as="geometry" />
        </mxCell>
        <mxCell id="LcHKL6DFev7YtZBEbFu9-6" value="Masukkan Password" style="whiteSpace=wrap;strokeWidth=2;" vertex="1" parent="1">
          <mxGeometry x="990" y="370" width="199" height="48" as="geometry" />
        </mxCell>
        <mxCell id="LcHKL6DFev7YtZBEbFu9-7" value="Username Benar?" style="rhombus;strokeWidth=2;whiteSpace=wrap;" vertex="1" parent="1">
          <mxGeometry x="1003.5" y="480" width="172" height="172" as="geometry" />
        </mxCell>
        <mxCell id="LcHKL6DFev7YtZBEbFu9-8" value="Username salah" style="whiteSpace=wrap;strokeWidth=2;" vertex="1" parent="1">
          <mxGeometry x="660" y="542" width="173" height="48" as="geometry" />
        </mxCell>
        <mxCell id="LcHKL6DFev7YtZBEbFu9-9" value="Password Benar?" style="rhombus;strokeWidth=2;whiteSpace=wrap;" vertex="1" parent="1">
          <mxGeometry x="1006.5" y="710" width="166" height="166" as="geometry" />
        </mxCell>
        <mxCell id="LcHKL6DFev7YtZBEbFu9-10" value="Password salah" style="whiteSpace=wrap;strokeWidth=2;" vertex="1" parent="1">
          <mxGeometry x="779" y="769" width="167" height="48" as="geometry" />
        </mxCell>
        <mxCell id="LcHKL6DFev7YtZBEbFu9-11" value="Login Berhasil" style="whiteSpace=wrap;strokeWidth=2;" vertex="1" parent="1">
          <mxGeometry x="1009.5" y="940" width="160" height="48" as="geometry" />
        </mxCell>
        <mxCell id="LcHKL6DFev7YtZBEbFu9-13" value="Tampilkan Menu" style="whiteSpace=wrap;strokeWidth=2;" vertex="1" parent="1">
          <mxGeometry x="996.5" y="1090" width="176" height="48" as="geometry" />
        </mxCell>
        <mxCell id="LcHKL6DFev7YtZBEbFu9-14" value="Masukkan Pilihan Menu" style="whiteSpace=wrap;strokeWidth=2;" vertex="1" parent="1">
          <mxGeometry x="971" y="1250" width="224" height="48" as="geometry" />
        </mxCell>
        <mxCell id="LcHKL6DFev7YtZBEbFu9-15" value="Pilihan Valid?" style="rhombus;strokeWidth=2;whiteSpace=wrap;" vertex="1" parent="1">
          <mxGeometry x="1013.5" y="1412" width="142" height="142" as="geometry" />
        </mxCell>
        <mxCell id="LcHKL6DFev7YtZBEbFu9-16" value="Pilihan tidak valid" style="whiteSpace=wrap;strokeWidth=2;" vertex="1" parent="1">
          <mxGeometry x="720" y="1460" width="188" height="48" as="geometry" />
        </mxCell>
        <mxCell id="LcHKL6DFev7YtZBEbFu9-17" value="Pilih Menu" style="rhombus;strokeWidth=2;whiteSpace=wrap;" vertex="1" parent="1">
          <mxGeometry x="1022" y="1627" width="122" height="122" as="geometry" />
        </mxCell>
        <mxCell id="LcHKL6DFev7YtZBEbFu9-18" value="Keliling Segitiga" style="whiteSpace=wrap;strokeWidth=2;" vertex="1" parent="1">
          <mxGeometry x="654" y="1821" width="174" height="48" as="geometry" />
        </mxCell>
        <mxCell id="LcHKL6DFev7YtZBEbFu9-19" value="Luas Lingkaran" style="whiteSpace=wrap;strokeWidth=2;" vertex="1" parent="1">
          <mxGeometry x="908" y="1821" width="166" height="48" as="geometry" />
        </mxCell>
        <mxCell id="LcHKL6DFev7YtZBEbFu9-20" value="Keliling Jajar Genjang" style="whiteSpace=wrap;strokeWidth=2;" vertex="1" parent="1">
          <mxGeometry x="1130" y="1821" width="218" height="48" as="geometry" />
        </mxCell>
        <mxCell id="LcHKL6DFev7YtZBEbFu9-21" value="Keluar Program" style="whiteSpace=wrap;strokeWidth=2;" vertex="1" parent="1">
          <mxGeometry x="1390" y="1821" width="169" height="48" as="geometry" />
        </mxCell>
        <mxCell id="LcHKL6DFev7YtZBEbFu9-22" value="Akhiri Program" style="whiteSpace=wrap;strokeWidth=2;" vertex="1" parent="1">
          <mxGeometry x="1473" y="1944" width="166" height="48" as="geometry" />
        </mxCell>
        <mxCell id="LcHKL6DFev7YtZBEbFu9-23" value="Anda salah 3 kali - Program Berakhir" style="whiteSpace=wrap;strokeWidth=2;" vertex="1" parent="1">
          <mxGeometry x="1275" y="760" width="256" height="66" as="geometry" />
        </mxCell>
        <mxCell id="LcHKL6DFev7YtZBEbFu9-24" value="" style="curved=1;startArrow=none;endArrow=block;exitX=0.5;exitY=1.01;entryX=0.5;entryY=0.01;rounded=0;" edge="1" parent="1" source="LcHKL6DFev7YtZBEbFu9-3" target="LcHKL6DFev7YtZBEbFu9-4">
          <mxGeometry relative="1" as="geometry">
            <Array as="points" />
          </mxGeometry>
        </mxCell>
        <mxCell id="LcHKL6DFev7YtZBEbFu9-26" value="" style="curved=1;startArrow=none;endArrow=block;exitX=0.5;exitY=1;rounded=0;" edge="1" parent="1" source="LcHKL6DFev7YtZBEbFu9-5">
          <mxGeometry relative="1" as="geometry">
            <Array as="points" />
            <mxPoint x="1093" y="370" as="targetPoint" />
          </mxGeometry>
        </mxCell>
        <mxCell id="LcHKL6DFev7YtZBEbFu9-27" value="" style="curved=1;startArrow=none;endArrow=block;exitX=0.5;exitY=1.01;entryX=0.5;entryY=0;rounded=0;" edge="1" parent="1" source="LcHKL6DFev7YtZBEbFu9-6" target="LcHKL6DFev7YtZBEbFu9-7">
          <mxGeometry relative="1" as="geometry">
            <Array as="points" />
          </mxGeometry>
        </mxCell>
        <mxCell id="LcHKL6DFev7YtZBEbFu9-29" value="Ya" style="curved=1;startArrow=none;endArrow=block;exitX=0.5;exitY=1;entryX=0.5;entryY=0;rounded=0;" edge="1" parent="1" source="LcHKL6DFev7YtZBEbFu9-7" target="LcHKL6DFev7YtZBEbFu9-9">
          <mxGeometry relative="1" as="geometry">
            <Array as="points" />
          </mxGeometry>
        </mxCell>
        <mxCell id="LcHKL6DFev7YtZBEbFu9-37" value="" style="curved=1;startArrow=none;endArrow=block;exitX=0.5;exitY=1.01;entryX=0.5;entryY=0;rounded=0;" edge="1" parent="1" source="LcHKL6DFev7YtZBEbFu9-14" target="LcHKL6DFev7YtZBEbFu9-15">
          <mxGeometry relative="1" as="geometry">
            <Array as="points" />
          </mxGeometry>
        </mxCell>
        <mxCell id="LcHKL6DFev7YtZBEbFu9-48" value="" style="curved=1;startArrow=none;endArrow=block;exitX=0.5;exitY=1.01;entryX=0.5;entryY=0.01;rounded=0;" edge="1" parent="1" source="LcHKL6DFev7YtZBEbFu9-21" target="LcHKL6DFev7YtZBEbFu9-22">
          <mxGeometry relative="1" as="geometry">
            <Array as="points" />
          </mxGeometry>
        </mxCell>
        <mxCell id="LcHKL6DFev7YtZBEbFu9-51" value="" style="endArrow=none;html=1;rounded=0;exitX=1;exitY=0.5;exitDx=0;exitDy=0;entryX=0.5;entryY=0;entryDx=0;entryDy=0;" edge="1" parent="1" target="LcHKL6DFev7YtZBEbFu9-5">
          <mxGeometry width="50" height="50" relative="1" as="geometry">
            <mxPoint x="986" y="190" as="sourcePoint" />
            <mxPoint x="1220" y="543" as="targetPoint" />
            <Array as="points">
              <mxPoint x="1093" y="190" />
            </Array>
          </mxGeometry>
        </mxCell>
        <mxCell id="LcHKL6DFev7YtZBEbFu9-54" value="" style="endArrow=classic;html=1;rounded=0;exitX=0.5;exitY=0;exitDx=0;exitDy=0;entryX=0;entryY=1;entryDx=0;entryDy=0;" edge="1" parent="1" source="LcHKL6DFev7YtZBEbFu9-8" target="LcHKL6DFev7YtZBEbFu9-4">
          <mxGeometry width="50" height="50" relative="1" as="geometry">
            <mxPoint x="1170" y="610" as="sourcePoint" />
            <mxPoint x="1220" y="560" as="targetPoint" />
          </mxGeometry>
        </mxCell>
        <mxCell id="LcHKL6DFev7YtZBEbFu9-55" value="" style="endArrow=classic;html=1;rounded=0;exitX=0;exitY=0.5;exitDx=0;exitDy=0;entryX=1;entryY=0.5;entryDx=0;entryDy=0;" edge="1" parent="1" source="LcHKL6DFev7YtZBEbFu9-7" target="LcHKL6DFev7YtZBEbFu9-8">
          <mxGeometry width="50" height="50" relative="1" as="geometry">
            <mxPoint x="1160" y="610" as="sourcePoint" />
            <mxPoint x="1210" y="560" as="targetPoint" />
          </mxGeometry>
        </mxCell>
        <mxCell id="LcHKL6DFev7YtZBEbFu9-56" value="" style="endArrow=classic;html=1;rounded=0;exitX=0.5;exitY=0;exitDx=0;exitDy=0;entryX=0.5;entryY=1;entryDx=0;entryDy=0;" edge="1" parent="1" source="LcHKL6DFev7YtZBEbFu9-10" target="LcHKL6DFev7YtZBEbFu9-4">
          <mxGeometry width="50" height="50" relative="1" as="geometry">
            <mxPoint x="1160" y="610" as="sourcePoint" />
            <mxPoint x="1210" y="560" as="targetPoint" />
          </mxGeometry>
        </mxCell>
        <mxCell id="LcHKL6DFev7YtZBEbFu9-57" value="" style="endArrow=classic;html=1;rounded=0;exitX=0;exitY=0.5;exitDx=0;exitDy=0;entryX=1;entryY=0.5;entryDx=0;entryDy=0;" edge="1" parent="1" source="LcHKL6DFev7YtZBEbFu9-9" target="LcHKL6DFev7YtZBEbFu9-10">
          <mxGeometry width="50" height="50" relative="1" as="geometry">
            <mxPoint x="1160" y="610" as="sourcePoint" />
            <mxPoint x="1210" y="560" as="targetPoint" />
          </mxGeometry>
        </mxCell>
        <mxCell id="LcHKL6DFev7YtZBEbFu9-58" value="" style="endArrow=classic;html=1;rounded=0;exitX=0.5;exitY=1;exitDx=0;exitDy=0;entryX=0.5;entryY=0;entryDx=0;entryDy=0;" edge="1" parent="1" source="LcHKL6DFev7YtZBEbFu9-9" target="LcHKL6DFev7YtZBEbFu9-11">
          <mxGeometry width="50" height="50" relative="1" as="geometry">
            <mxPoint x="1160" y="1040" as="sourcePoint" />
            <mxPoint x="1210" y="990" as="targetPoint" />
          </mxGeometry>
        </mxCell>
        <mxCell id="LcHKL6DFev7YtZBEbFu9-59" value="" style="endArrow=classic;html=1;rounded=0;exitX=1;exitY=0.5;exitDx=0;exitDy=0;entryX=0;entryY=0.5;entryDx=0;entryDy=0;" edge="1" parent="1" source="LcHKL6DFev7YtZBEbFu9-9" target="LcHKL6DFev7YtZBEbFu9-23">
          <mxGeometry width="50" height="50" relative="1" as="geometry">
            <mxPoint x="1160" y="1000" as="sourcePoint" />
            <mxPoint x="1280" y="950" as="targetPoint" />
          </mxGeometry>
        </mxCell>
        <mxCell id="LcHKL6DFev7YtZBEbFu9-60" value="" style="endArrow=classic;html=1;rounded=0;exitX=0.5;exitY=1;exitDx=0;exitDy=0;entryX=0.5;entryY=0;entryDx=0;entryDy=0;" edge="1" parent="1" source="LcHKL6DFev7YtZBEbFu9-11">
          <mxGeometry width="50" height="50" relative="1" as="geometry">
            <mxPoint x="1160" y="1370" as="sourcePoint" />
            <mxPoint x="1089.5" y="1090" as="targetPoint" />
          </mxGeometry>
        </mxCell>
        <mxCell id="LcHKL6DFev7YtZBEbFu9-61" value="" style="endArrow=classic;html=1;rounded=0;entryX=0.5;entryY=0;entryDx=0;entryDy=0;exitX=0.5;exitY=1;exitDx=0;exitDy=0;" edge="1" parent="1" source="LcHKL6DFev7YtZBEbFu9-13" target="LcHKL6DFev7YtZBEbFu9-14">
          <mxGeometry width="50" height="50" relative="1" as="geometry">
            <mxPoint x="1080" y="1140" as="sourcePoint" />
            <mxPoint x="1140" y="1490" as="targetPoint" />
          </mxGeometry>
        </mxCell>
        <mxCell id="LcHKL6DFev7YtZBEbFu9-62" value="" style="endArrow=classic;html=1;rounded=0;exitX=0.5;exitY=1;exitDx=0;exitDy=0;entryX=0.5;entryY=0;entryDx=0;entryDy=0;" edge="1" parent="1" source="LcHKL6DFev7YtZBEbFu9-15" target="LcHKL6DFev7YtZBEbFu9-17">
          <mxGeometry width="50" height="50" relative="1" as="geometry">
            <mxPoint x="1090" y="1450" as="sourcePoint" />
            <mxPoint x="1140" y="1400" as="targetPoint" />
          </mxGeometry>
        </mxCell>
        <mxCell id="LcHKL6DFev7YtZBEbFu9-63" value="" style="endArrow=classic;html=1;rounded=0;exitX=0;exitY=0.5;exitDx=0;exitDy=0;entryX=1;entryY=0.5;entryDx=0;entryDy=0;" edge="1" parent="1" source="LcHKL6DFev7YtZBEbFu9-15" target="LcHKL6DFev7YtZBEbFu9-16">
          <mxGeometry width="50" height="50" relative="1" as="geometry">
            <mxPoint x="1090" y="1580" as="sourcePoint" />
            <mxPoint x="1140" y="1530" as="targetPoint" />
          </mxGeometry>
        </mxCell>
        <mxCell id="LcHKL6DFev7YtZBEbFu9-65" value="" style="endArrow=classic;html=1;rounded=0;exitX=0.5;exitY=0;exitDx=0;exitDy=0;entryX=0;entryY=0.5;entryDx=0;entryDy=0;" edge="1" parent="1" source="LcHKL6DFev7YtZBEbFu9-16" target="LcHKL6DFev7YtZBEbFu9-13">
          <mxGeometry width="50" height="50" relative="1" as="geometry">
            <mxPoint x="1090" y="1580" as="sourcePoint" />
            <mxPoint x="1140" y="1530" as="targetPoint" />
            <Array as="points">
              <mxPoint x="814" y="1114" />
            </Array>
          </mxGeometry>
        </mxCell>
        <mxCell id="LcHKL6DFev7YtZBEbFu9-66" value="" style="endArrow=classic;html=1;rounded=0;exitX=1;exitY=0.5;exitDx=0;exitDy=0;entryX=0.5;entryY=0;entryDx=0;entryDy=0;" edge="1" parent="1" source="LcHKL6DFev7YtZBEbFu9-17" target="LcHKL6DFev7YtZBEbFu9-21">
          <mxGeometry width="50" height="50" relative="1" as="geometry">
            <mxPoint x="1090" y="1630" as="sourcePoint" />
            <mxPoint x="1140" y="1580" as="targetPoint" />
          </mxGeometry>
        </mxCell>
        <mxCell id="LcHKL6DFev7YtZBEbFu9-67" value="" style="endArrow=classic;html=1;rounded=0;exitX=0;exitY=1;exitDx=0;exitDy=0;entryX=0.5;entryY=0;entryDx=0;entryDy=0;" edge="1" parent="1" source="LcHKL6DFev7YtZBEbFu9-17" target="LcHKL6DFev7YtZBEbFu9-19">
          <mxGeometry width="50" height="50" relative="1" as="geometry">
            <mxPoint x="1090" y="1650" as="sourcePoint" />
            <mxPoint x="1140" y="1600" as="targetPoint" />
          </mxGeometry>
        </mxCell>
        <mxCell id="LcHKL6DFev7YtZBEbFu9-68" value="" style="endArrow=classic;html=1;rounded=0;exitX=1;exitY=1;exitDx=0;exitDy=0;entryX=0.552;entryY=0.075;entryDx=0;entryDy=0;entryPerimeter=0;" edge="1" parent="1" source="LcHKL6DFev7YtZBEbFu9-17" target="LcHKL6DFev7YtZBEbFu9-20">
          <mxGeometry width="50" height="50" relative="1" as="geometry">
            <mxPoint x="1090" y="1650" as="sourcePoint" />
            <mxPoint x="1140" y="1600" as="targetPoint" />
          </mxGeometry>
        </mxCell>
        <mxCell id="LcHKL6DFev7YtZBEbFu9-69" value="" style="endArrow=classic;html=1;rounded=0;" edge="1" parent="1">
          <mxGeometry width="50" height="50" relative="1" as="geometry">
            <mxPoint x="1020" y="1690" as="sourcePoint" />
            <mxPoint x="730" y="1820" as="targetPoint" />
          </mxGeometry>
        </mxCell>
        <mxCell id="LcHKL6DFev7YtZBEbFu9-71" value="" style="endArrow=classic;html=1;rounded=0;entryX=0;entryY=1;entryDx=0;entryDy=0;" edge="1" parent="1" target="LcHKL6DFev7YtZBEbFu9-13">
          <mxGeometry width="50" height="50" relative="1" as="geometry">
            <mxPoint x="730" y="1820" as="sourcePoint" />
            <mxPoint x="990" y="1110" as="targetPoint" />
            <Array as="points">
              <mxPoint x="650" y="1320" />
            </Array>
          </mxGeometry>
        </mxCell>
        <mxCell id="LcHKL6DFev7YtZBEbFu9-72" value="" style="endArrow=classic;html=1;rounded=0;entryX=0.25;entryY=1;entryDx=0;entryDy=0;" edge="1" parent="1" target="LcHKL6DFev7YtZBEbFu9-13">
          <mxGeometry width="50" height="50" relative="1" as="geometry">
            <mxPoint x="990" y="1810" as="sourcePoint" />
            <mxPoint x="920" y="1200" as="targetPoint" />
            <Array as="points">
              <mxPoint x="900" y="1310" />
            </Array>
          </mxGeometry>
        </mxCell>
        <mxCell id="LcHKL6DFev7YtZBEbFu9-73" value="" style="endArrow=classic;html=1;rounded=0;entryX=0.75;entryY=1;entryDx=0;entryDy=0;" edge="1" parent="1" target="LcHKL6DFev7YtZBEbFu9-13">
          <mxGeometry width="50" height="50" relative="1" as="geometry">
            <mxPoint x="1240" y="1810" as="sourcePoint" />
            <mxPoint x="1370" y="1190" as="targetPoint" />
            <Array as="points">
              <mxPoint x="1340" y="1330" />
            </Array>
          </mxGeometry>
        </mxCell>
        <mxCell id="LcHKL6DFev7YtZBEbFu9-74" value="" style="endArrow=classic;html=1;rounded=0;entryX=1;entryY=0.5;entryDx=0;entryDy=0;" edge="1" parent="1" target="LcHKL6DFev7YtZBEbFu9-13">
          <mxGeometry width="50" height="50" relative="1" as="geometry">
            <mxPoint x="1473" y="1821" as="sourcePoint" />
            <mxPoint x="1003" y="1531" as="targetPoint" />
            <Array as="points">
              <mxPoint x="1540" y="1320" />
            </Array>
          </mxGeometry>
        </mxCell>
      </root>
    </mxGraphModel>
  </diagram>
</mxfile>
